<?xml version="1.0" encoding="UTF-8" standalone="no"?>
<!DOCTYPE svg PUBLIC "-//W3C//DTD SVG 1.1//EN" "http://www.w3.org/Graphics/SVG/1.1/DTD/svg11.dtd">
<svg width="100%" height="100%" viewBox="0 0 3544 3544" version="1.1" xmlns="http://www.w3.org/2000/svg" xmlns:xlink="http://www.w3.org/1999/xlink" xml:space="preserve" xmlns:serif="http://www.serif.com/" style="fill-rule:evenodd;clip-rule:evenodd;stroke-linecap:round;stroke-linejoin:round;stroke-miterlimit:1.5;">
    <g id="Artboard1" transform="matrix(2.2068,0,0,2.19655,-1689.32,-1173.63)">
        <rect x="765.504" y="534.307" width="1605.63" height="1613.12" style="fill:none;"/>
        <g id="ヒツジアイコン.svg" transform="matrix(2.09066,0,0,2.10042,1568.32,1340.87)">
            <g transform="matrix(1,0,0,1,-256,-256)">
                <clipPath id="_clip1">
                    <rect x="0" y="0" width="512" height="512"/>
                </clipPath>
                <g clip-path="url(#_clip1)">
                    <g>
                        <path d="M487.759,193.282C480.361,181.202 470.536,170.81 458.965,162.711C460.003,156.813 460.585,150.855 460.585,144.89C460.585,131.766 458.085,118.634 453.075,106.264C448.066,93.893 440.518,82.285 430.529,72.288C420.533,62.291 408.924,54.751 396.554,49.742C384.184,44.726 371.051,42.224 357.927,42.224C351.962,42.224 345.997,42.806 340.1,43.844C332,32.281 321.615,22.448 309.536,15.05C293.962,5.51 275.56,-0.008 256,0C236.44,-0.008 218.038,5.51 202.465,15.05C190.386,22.449 180.001,32.281 171.901,43.844C166.004,42.807 160.039,42.224 154.073,42.224C140.949,42.224 127.817,44.718 115.447,49.735C103.077,54.751 91.461,62.291 81.471,72.295C71.475,82.284 63.935,93.893 58.925,106.263C53.909,118.633 51.407,131.765 51.407,144.881C51.407,150.846 51.997,156.811 53.027,162.709C41.463,170.809 31.631,181.201 24.233,193.28C14.693,208.853 9.175,227.255 9.183,246.815C9.175,266.375 14.693,284.777 24.233,300.343C31.631,312.423 41.463,322.814 53.027,330.914C51.99,336.812 51.407,342.777 51.407,348.749C51.407,361.873 53.909,374.998 58.925,387.368C63.935,399.738 71.475,411.347 81.471,421.336C91.461,431.332 103.077,438.881 115.439,443.89C121.195,446.219 127.123,447.989 133.132,449.235L133.132,483.039C133.132,499.03 146.1,511.998 162.091,511.998C178.09,511.998 191.058,499.03 191.058,483.039L191.058,470.46C194.664,473.409 198.471,476.134 202.465,478.582C218.038,488.123 236.44,493.633 256,493.633C275.56,493.633 293.962,488.123 309.535,478.582C313.529,476.133 317.337,473.416 320.943,470.46L320.943,483.039C320.943,499.03 333.911,511.998 349.902,511.998C365.901,511.998 378.868,499.03 378.868,483.039L378.868,449.23C384.878,447.991 390.798,446.221 396.554,443.884C408.924,438.883 420.533,431.334 430.529,421.346C440.518,411.35 448.065,399.74 453.075,387.37C458.093,374.992 460.593,361.868 460.593,348.751C460.593,342.771 460.004,336.814 458.973,330.916C470.537,322.816 480.369,312.424 487.76,300.345C497.308,284.779 502.818,266.377 502.818,246.817C502.825,227.258 497.308,208.855 487.759,193.282ZM460.816,283.854C454.216,294.642 444.787,303.555 433.597,309.535C426.952,313.089 423.75,320.838 425.929,328.05C427.975,334.777 428.997,341.757 428.997,348.752C428.997,357.86 427.258,366.96 423.793,375.501C420.329,384.049 415.156,392.029 408.182,399.003C401.217,405.968 393.229,411.141 384.688,414.606C376.14,418.07 367.04,419.809 357.932,419.809C350.944,419.809 343.964,418.786 337.23,416.748C330.018,414.561 322.276,417.771 318.723,424.416C312.743,435.6 303.822,445.035 293.034,451.635C282.239,458.243 269.63,462.035 255.998,462.042C242.366,462.035 229.764,458.243 218.962,451.635C208.174,445.035 199.26,435.6 193.28,424.416C189.719,417.771 181.977,414.561 174.765,416.748C168.032,418.786 161.044,419.816 154.063,419.809C144.955,419.817 135.855,418.077 127.307,414.613C118.766,411.141 110.778,405.968 103.813,399.003C96.84,392.029 91.666,384.041 88.203,375.501C84.739,366.96 82.999,357.86 82.999,348.752C82.999,341.765 84.022,334.784 86.068,328.05C88.248,320.838 85.037,313.09 78.401,309.535C67.21,303.555 57.781,294.642 51.173,283.854C44.574,273.052 40.782,260.442 40.774,246.817C40.782,233.185 44.574,220.576 51.173,209.781C57.78,198.986 67.209,190.073 78.401,184.093C85.037,180.539 88.248,172.79 86.068,165.586C84.022,158.852 82.999,151.864 82.999,144.883C82.999,135.775 84.739,126.675 88.203,118.134C91.667,109.587 96.841,101.598 103.813,94.633C110.786,87.66 118.766,82.479 127.314,79.015C135.855,75.551 144.955,73.819 154.07,73.819C161.05,73.819 168.038,74.842 174.764,76.88C181.976,79.068 189.726,75.857 193.279,69.213C199.259,58.029 208.173,48.601 218.961,41.994C229.764,35.394 242.365,31.594 255.997,31.594C269.629,31.594 282.238,35.394 293.033,41.994C303.821,48.6 312.743,58.029 318.715,69.213C322.269,75.865 330.018,79.068 337.23,76.88C343.956,74.842 350.944,73.819 357.924,73.819C367.04,73.819 376.14,75.559 384.68,79.023C393.228,82.487 401.209,87.661 408.181,94.633C415.147,101.598 420.328,109.587 423.792,118.127C427.249,126.675 428.988,135.776 428.988,144.891C428.988,151.864 427.965,158.852 425.927,165.586C423.74,172.797 426.95,180.539 433.595,184.093C444.785,190.073 454.214,198.994 460.821,209.781C467.421,220.584 471.213,233.185 471.22,246.817C471.216,260.442 467.424,273.052 460.816,283.854Z" style="fill:rgb(255,152,0);fill-rule:nonzero;"/>
                        <path d="M352.156,177.709C311.17,193.506 308.02,193.506 308.02,193.506L203.98,193.506C203.98,193.506 200.83,193.506 159.844,177.709C118.859,161.912 115.708,232.999 188.22,252.737C188.22,252.737 199.254,371.215 256,371.215C312.746,371.215 323.779,252.737 323.779,252.737C396.292,232.999 393.142,161.912 352.156,177.709Z" style="fill:rgb(255,152,0);fill-rule:nonzero;"/>
                    </g>
                </g>
            </g>
        </g>
        <g transform="matrix(0.519417,0,0,0.521842,565.902,312.393)">
            <circle cx="1929.89" cy="1970.86" r="1442.57" style="fill:none;stroke:rgb(255,152,0);stroke-width:145.4px;"/>
        </g>
    </g>
</svg>
